# xmcd CD database file
#
# Track frame offsets:
#	150
#	21822
#	43920
#	66105
#	91755
#	113060
#	131542
#	148665
#	165940
#	186015
#	205737
#
# Disc length: 2957 seconds
#
# Revision: 2
# Processed by: cddbd v1.5.1PL0 Copyright (c) Steve Scherf et al.
# Submitted via: CDex 1.51
#
DISCID=8e0b8b0b
DTITLE=Kal David - Double Tuff
DYEAR=1993
DGENRE=Blues
TTITLE0=Thing Called Love
TTITLE1=Just Wanna Be With You
TTITLE2=Opportunity
TTITLE3=Your Good Thing (Is About To End)
TTITLE4=Can't Get You Off Of My Heart
TTITLE5=Blue Nights
TTITLE6=Your Precious Love
TTITLE7=Double Tuff
TTITLE8=Modern Man
TTITLE9=That's Not Me
TTITLE10=Crazy Love
EXTD=YEAR: 1993
EXTT0=
EXTT1=
EXTT2=
EXTT3=
EXTT4=
EXTT5=
EXTT6=
EXTT7=
EXTT8=
EXTT9=
EXTT10=
PLAYORDER=
